<mxfile host="app.diagrams.net" modified="2023-08-23T15:13:14.558Z" agent="Mozilla/5.0 (Windows NT 10.0; Win64; x64) AppleWebKit/537.36 (KHTML, like Gecko) Chrome/116.0.0.0 Safari/537.36 Edg/116.0.1938.54" etag="zmqRqdjJTSjBZDd-dpn3" version="21.6.9" type="github">
  <diagram name="第 1 页" id="4mFs4OE3YxinvxvTkIwU">
    <mxGraphModel dx="1379" dy="1214" grid="0" gridSize="10" guides="1" tooltips="1" connect="1" arrows="1" fold="1" page="0" pageScale="1" pageWidth="827" pageHeight="1169" math="0" shadow="0">
      <root>
        <mxCell id="0" />
        <mxCell id="1" parent="0" />
        <mxCell id="SmuVZXcfhwMBwBLiexbj-12" style="edgeStyle=none;curved=1;rounded=0;orthogonalLoop=1;jettySize=auto;html=1;exitX=0.5;exitY=0;exitDx=0;exitDy=0;entryX=0.5;entryY=1;entryDx=0;entryDy=0;fontSize=12;startSize=8;endSize=8;endArrow=none;endFill=0;" edge="1" parent="1" source="SmuVZXcfhwMBwBLiexbj-2" target="SmuVZXcfhwMBwBLiexbj-3">
          <mxGeometry relative="1" as="geometry" />
        </mxCell>
        <mxCell id="SmuVZXcfhwMBwBLiexbj-13" style="edgeStyle=none;curved=1;rounded=0;orthogonalLoop=1;jettySize=auto;html=1;exitX=1;exitY=0.5;exitDx=0;exitDy=0;entryX=0;entryY=0;entryDx=0;entryDy=0;fontSize=12;startSize=8;endSize=8;endArrow=none;endFill=0;" edge="1" parent="1" source="SmuVZXcfhwMBwBLiexbj-2" target="SmuVZXcfhwMBwBLiexbj-4">
          <mxGeometry relative="1" as="geometry" />
        </mxCell>
        <mxCell id="SmuVZXcfhwMBwBLiexbj-14" style="edgeStyle=none;curved=1;rounded=0;orthogonalLoop=1;jettySize=auto;html=1;exitX=0;exitY=0.5;exitDx=0;exitDy=0;entryX=1;entryY=0;entryDx=0;entryDy=0;fontSize=12;startSize=8;endSize=8;endArrow=none;endFill=0;" edge="1" parent="1" source="SmuVZXcfhwMBwBLiexbj-2" target="SmuVZXcfhwMBwBLiexbj-5">
          <mxGeometry relative="1" as="geometry">
            <mxPoint x="166" y="90" as="sourcePoint" />
            <mxPoint x="29" y="192" as="targetPoint" />
          </mxGeometry>
        </mxCell>
        <mxCell id="SmuVZXcfhwMBwBLiexbj-2" value="1" style="ellipse;whiteSpace=wrap;html=1;aspect=fixed;fontSize=16;" vertex="1" parent="1">
          <mxGeometry x="175" y="77" width="80" height="80" as="geometry" />
        </mxCell>
        <mxCell id="SmuVZXcfhwMBwBLiexbj-15" style="edgeStyle=none;curved=1;rounded=0;orthogonalLoop=1;jettySize=auto;html=1;exitX=1;exitY=0.5;exitDx=0;exitDy=0;entryX=0.5;entryY=0;entryDx=0;entryDy=0;fontSize=12;startSize=8;endSize=8;endArrow=none;endFill=0;" edge="1" parent="1" source="SmuVZXcfhwMBwBLiexbj-3" target="SmuVZXcfhwMBwBLiexbj-4">
          <mxGeometry relative="1" as="geometry" />
        </mxCell>
        <mxCell id="SmuVZXcfhwMBwBLiexbj-16" style="edgeStyle=none;curved=1;rounded=0;orthogonalLoop=1;jettySize=auto;html=1;exitX=0;exitY=0.5;exitDx=0;exitDy=0;entryX=0.5;entryY=0;entryDx=0;entryDy=0;fontSize=12;startSize=8;endSize=8;endArrow=none;endFill=0;" edge="1" parent="1" source="SmuVZXcfhwMBwBLiexbj-3" target="SmuVZXcfhwMBwBLiexbj-5">
          <mxGeometry relative="1" as="geometry" />
        </mxCell>
        <mxCell id="SmuVZXcfhwMBwBLiexbj-3" value="2" style="ellipse;whiteSpace=wrap;html=1;aspect=fixed;fontSize=16;" vertex="1" parent="1">
          <mxGeometry x="175" y="-66" width="80" height="80" as="geometry" />
        </mxCell>
        <mxCell id="SmuVZXcfhwMBwBLiexbj-4" value="3" style="ellipse;whiteSpace=wrap;html=1;aspect=fixed;fontSize=16;" vertex="1" parent="1">
          <mxGeometry x="357" y="184" width="80" height="80" as="geometry" />
        </mxCell>
        <mxCell id="SmuVZXcfhwMBwBLiexbj-17" style="edgeStyle=none;curved=1;rounded=0;orthogonalLoop=1;jettySize=auto;html=1;exitX=1;exitY=0.5;exitDx=0;exitDy=0;entryX=0;entryY=0.5;entryDx=0;entryDy=0;fontSize=12;startSize=8;endSize=8;endArrow=none;endFill=0;" edge="1" parent="1" source="SmuVZXcfhwMBwBLiexbj-5" target="SmuVZXcfhwMBwBLiexbj-4">
          <mxGeometry relative="1" as="geometry" />
        </mxCell>
        <mxCell id="SmuVZXcfhwMBwBLiexbj-5" value="4" style="ellipse;whiteSpace=wrap;html=1;aspect=fixed;fontSize=16;" vertex="1" parent="1">
          <mxGeometry x="4" y="184" width="80" height="80" as="geometry" />
        </mxCell>
      </root>
    </mxGraphModel>
  </diagram>
</mxfile>
